<svg width="183" height="71" viewBox="0 0 183 71" fill="none" xmlns="http://www.w3.org/2000/svg"><path d="M78.413 36.549c-2.354 0-4.477-.365-6.367-1.095-1.89-.763-3.499-1.873-4.825-3.333-1.327-1.492-2.355-3.333-3.084-5.521-.73-2.222-1.095-4.81-1.095-7.76 0-2.919.365-5.506 1.095-7.76.73-2.29 1.757-4.196 3.084-5.722a12.745 12.745 0 0 1 4.825-3.532c1.89-.795 4.013-1.193 6.367-1.193 3.217 0 5.87.663 7.96 1.99 2.09 1.293 3.764 3.349 5.024 6.168l-6.517 3.383c-.464-1.46-1.194-2.62-2.188-3.483-.962-.895-2.388-1.343-4.278-1.343-2.222 0-4.013.73-5.373 2.189-1.326 1.426-1.99 3.515-1.99 6.268v5.571c0 2.753.663 4.859 1.99 6.318 1.36 1.426 3.15 2.14 5.373 2.14 1.857 0 3.332-.498 4.427-1.493a9.306 9.306 0 0 0 2.487-3.681l6.169 3.581c-1.294 2.653-3.002 4.71-5.124 6.169-2.09 1.426-4.743 2.139-7.96 2.139ZM103.354 35.952h-7.561V1.23h16.466c1.591 0 3.034.265 4.327.795a8.89 8.89 0 0 1 3.284 2.289c.928.961 1.641 2.122 2.139 3.482.497 1.36.746 2.869.746 4.527 0 2.354-.531 4.41-1.592 6.168-1.028 1.758-2.603 3.035-4.726 3.83l6.815 13.63h-8.407l-6.069-12.734h-5.422v12.735Zm7.959-19.102c1.128 0 2.007-.282 2.637-.846.663-.597.995-1.46.995-2.587v-2.189c0-1.127-.332-1.973-.995-2.537-.63-.597-1.509-.895-2.637-.895h-7.959v9.053h7.959ZM150.708 35.952l-2.487-8.258H136.63l-2.487 8.258h-7.661L137.924 1.23h9.352l11.292 34.722h-7.86ZM142.5 8.094h-.248l-3.831 13.183h7.959L142.5 8.094ZM173.598 7.945v28.007h-7.561V7.945h-9.402V1.23H183v6.715h-9.402ZM68.742 49.828v6.001h-1.62v-6.001h-2.015v-1.44h5.65v1.44h-2.015Zm7.578 2.953h-2.835v3.048h-1.62v-7.44h1.62v2.963h2.835V48.39h1.62v7.44h-1.62v-3.048Zm3.259 3.048v-7.44h5.063v1.439h-3.443v1.524h2.953v1.429h-2.953v1.61h3.443v1.438h-5.063Zm8.994-7.44h2.803a3.7 3.7 0 0 1 1.343.234c.405.157.75.391 1.034.704.284.306.505.693.661 1.162.156.462.235 1.002.235 1.62 0 .618-.079 1.162-.235 1.631-.156.462-.377.85-.66 1.162a2.736 2.736 0 0 1-1.035.693 3.7 3.7 0 0 1-1.343.234h-2.803v-7.44Zm2.803 6.001c.483 0 .864-.135 1.14-.405.278-.27.416-.703.416-1.3v-1.152c0-.596-.138-1.03-.415-1.3-.277-.27-.658-.405-1.14-.405h-1.184v4.562h1.183Zm9.682 1.44h-5.266v-1.461l2.292-1.961c.206-.178.38-.338.522-.48a2.79 2.79 0 0 0 .341-.426 1.44 1.44 0 0 0 .192-.416c.043-.135.064-.28.064-.437v-.15a.782.782 0 0 0-.309-.64.965.965 0 0 0-.32-.159 1.173 1.173 0 0 0-.352-.053 1.2 1.2 0 0 0-.469.085 1.123 1.123 0 0 0-.34.235c-.093.092-.171.202-.235.33-.064.12-.114.252-.15.394l-1.396-.533c.085-.255.203-.497.352-.724.15-.235.334-.438.554-.608.228-.178.494-.316.8-.416.305-.1.65-.149 1.034-.149.405 0 .764.057 1.076.17.313.114.576.27.789.47.22.198.387.437.501.714.114.27.171.565.171.884 0 .32-.054.612-.16.875a3.067 3.067 0 0 1-.437.746 4.513 4.513 0 0 1-.63.65 39.58 39.58 0 0 1-.756.629l-1.386 1.087h3.518v1.343Zm4.345.127c-.505 0-.959-.078-1.364-.234a2.775 2.775 0 0 1-1.034-.715 3.332 3.332 0 0 1-.661-1.183c-.157-.476-.235-1.03-.235-1.663 0-.625.078-1.18.235-1.663.156-.49.376-.899.661-1.225a2.721 2.721 0 0 1 1.034-.757 3.48 3.48 0 0 1 1.364-.256c.689 0 1.258.142 1.706.426.447.278.806.718 1.076 1.322l-1.396.725a1.61 1.61 0 0 0-.469-.746c-.206-.192-.512-.288-.917-.288-.476 0-.86.156-1.151.469-.285.306-.427.753-.427 1.343v1.194c0 .59.142 1.041.427 1.354.291.305.675.458 1.151.458.398 0 .714-.106.949-.32.241-.22.419-.483.533-.788l1.321.767c-.277.569-.643 1.01-1.097 1.322-.448.305-1.017.458-1.706.458Zm6.456-7.568h3.614c.618 0 1.098.174 1.439.522.348.348.523.81.523 1.386 0 .284-.04.526-.118.725-.071.199-.17.362-.298.49a1.151 1.151 0 0 1-.437.288 1.824 1.824 0 0 1-.533.096v.064c.177 0 .362.032.554.096.199.064.38.167.544.309.163.135.298.313.405.533.113.22.17.49.17.81 0 .291-.049.569-.149.831-.092.256-.224.48-.394.672a1.934 1.934 0 0 1-.608.459 1.83 1.83 0 0 1-.767.16h-3.945v-7.441Zm1.621 6.076h1.865c.213 0 .38-.057.501-.17.128-.122.192-.288.192-.502v-.362c0-.213-.064-.377-.192-.49-.121-.121-.288-.182-.501-.182h-1.865v1.706Zm0-3.028h1.609c.214 0 .381-.06.501-.18.121-.121.182-.288.182-.502v-.32c0-.213-.061-.38-.182-.5-.12-.121-.287-.182-.501-.182h-1.609v1.684Zm5.489 4.392v-7.44h1.621v6.001h2.835v1.44h-4.456Zm8.211.128a3.56 3.56 0 0 1-1.343-.245 2.73 2.73 0 0 1-1.034-.725 3.45 3.45 0 0 1-.661-1.204c-.156-.484-.235-1.041-.235-1.674 0-.632.079-1.187.235-1.663.156-.483.377-.885.661-1.204a2.678 2.678 0 0 1 1.034-.736 3.56 3.56 0 0 1 1.343-.245c.49 0 .938.082 1.343.245.405.164.75.409 1.034.736.284.32.505.721.661 1.204.156.476.234 1.03.234 1.663s-.078 1.19-.234 1.674a3.45 3.45 0 0 1-.661 1.204 2.73 2.73 0 0 1-1.034.725 3.56 3.56 0 0 1-1.343.245Zm0-1.439c.49 0 .87-.16 1.14-.48.278-.32.416-.778.416-1.375v-1.108c0-.597-.138-1.056-.416-1.375-.27-.32-.65-.48-1.14-.48-.49 0-.874.16-1.151.48-.27.32-.405.778-.405 1.375v1.108c0 .597.135 1.056.405 1.376.277.32.661.48 1.151.48Zm7.631 1.44c-.505 0-.96-.079-1.365-.235a2.791 2.791 0 0 1-1.034-.715 3.346 3.346 0 0 1-.66-1.183c-.157-.476-.235-1.03-.235-1.663 0-.625.078-1.18.235-1.663.156-.49.376-.899.66-1.225a2.737 2.737 0 0 1 1.034-.757c.405-.17.86-.256 1.365-.256.689 0 1.258.142 1.705.426.448.278.807.718 1.077 1.322l-1.396.725a1.61 1.61 0 0 0-.469-.746c-.207-.192-.512-.288-.917-.288-.476 0-.86.156-1.151.469-.285.306-.427.753-.427 1.343v1.194c0 .59.142 1.041.427 1.354.291.305.675.458 1.151.458.398 0 .714-.106.949-.32.241-.22.419-.483.533-.788l1.321.767c-.277.569-.643 1.01-1.098 1.322-.447.305-1.016.458-1.705.458Zm6.527-3.37-.97 1.173v2.068h-1.62v-7.44h1.62v3.539h.064l1.056-1.44 1.673-2.1h1.834l-2.505 3.06 2.729 4.381h-1.908l-1.973-3.24Zm7.412 3.37c-.505 0-.96-.079-1.365-.235a2.783 2.783 0 0 1-1.034-.715 3.363 3.363 0 0 1-.661-1.183c-.156-.476-.234-1.03-.234-1.663 0-.625.078-1.18.234-1.663.157-.49.377-.899.661-1.225a2.729 2.729 0 0 1 1.034-.757c.405-.17.86-.256 1.365-.256.689 0 1.258.142 1.705.426.448.278.807.718 1.077 1.322l-1.397.725a1.594 1.594 0 0 0-.469-.746c-.206-.192-.511-.288-.916-.288-.476 0-.86.156-1.152.469-.284.306-.426.753-.426 1.343v1.194c0 .59.142 1.041.426 1.354.292.305.676.458 1.152.458.398 0 .714-.106.948-.32.242-.22.42-.483.533-.788l1.322.767c-.277.569-.643 1.01-1.098 1.322-.447.305-1.016.458-1.705.458Zm8.393-3.177h-2.836v3.048h-1.62v-7.44h1.62v2.963h2.836V48.39h1.62v7.44h-1.62v-3.048Zm7.841 3.048-.533-1.77h-2.483l-.533 1.77h-1.642l2.452-7.44h2.004l2.42 7.44h-1.685Zm-1.758-5.97h-.054l-.821 2.826h1.706l-.831-2.825Zm4.184 5.97v-1.29h.96v-4.86h-.96v-1.29h3.539v1.29h-.959v4.86h.959v1.29h-3.539Zm7.16-3.517-.714-1.493h-.032v5.01h-1.525v-7.44h1.77l2.036 3.518.714 1.492h.032v-5.01h1.524v7.44h-1.769l-2.036-3.517ZM65.64 69.829v-7.44h3.517c.349 0 .661.06.938.181.278.114.512.274.704.48.199.206.352.458.458.757.107.291.16.61.16.959 0 .355-.053.679-.16.97-.106.291-.26.54-.458.746-.192.206-.426.37-.704.49-.277.114-.59.171-.938.171H67.26v2.686h-1.62Zm1.62-4.093h1.706c.241 0 .43-.06.564-.181.143-.128.214-.313.214-.555v-.469c0-.241-.071-.422-.214-.543-.135-.128-.323-.192-.564-.192H67.26v1.94Zm6.995 4.093h-1.62v-7.44h3.528c.342 0 .65.057.928.17.277.114.512.278.703.49.2.207.352.456.459.747.106.291.16.615.16.97 0 .504-.114.945-.341 1.322-.22.376-.558.65-1.013.82l1.46 2.921h-1.801l-1.3-2.728h-1.163v2.728Zm1.706-4.093c.242 0 .43-.06.565-.181.142-.128.213-.313.213-.555v-.469c0-.241-.071-.422-.213-.543-.135-.128-.323-.192-.565-.192h-1.706v1.94h1.706Zm6.737 4.221a3.56 3.56 0 0 1-1.343-.245 2.73 2.73 0 0 1-1.034-.725 3.45 3.45 0 0 1-.66-1.204c-.157-.484-.235-1.041-.235-1.674 0-.632.078-1.187.234-1.663.157-.483.377-.885.661-1.204a2.68 2.68 0 0 1 1.034-.736 3.56 3.56 0 0 1 1.343-.245c.49 0 .939.082 1.344.245.405.164.75.409 1.034.736.284.32.504.721.66 1.204.157.476.235 1.03.235 1.663s-.078 1.19-.234 1.674a3.45 3.45 0 0 1-.661 1.204 2.73 2.73 0 0 1-1.034.725 3.559 3.559 0 0 1-1.344.245Zm0-1.439c.49 0 .871-.16 1.141-.48.277-.32.416-.778.416-1.375v-1.108c0-.597-.139-1.056-.416-1.375-.27-.32-.65-.48-1.14-.48-.49 0-.875.16-1.152.48-.27.32-.405.778-.405 1.375v1.108c0 .597.135 1.056.405 1.376.277.32.661.48 1.151.48Zm7.457-4.69v6.001h-1.62v-6.001H86.52v-1.44h5.65v1.44h-2.015Zm5.837 6.13a3.56 3.56 0 0 1-1.343-.246 2.73 2.73 0 0 1-1.034-.725 3.45 3.45 0 0 1-.661-1.204c-.156-.484-.235-1.041-.235-1.674 0-.632.079-1.187.235-1.663.156-.483.377-.885.66-1.204a2.68 2.68 0 0 1 1.035-.736 3.56 3.56 0 0 1 1.343-.245c.49 0 .938.082 1.343.245.405.164.75.409 1.034.736.284.32.505.721.66 1.204.157.476.236 1.03.236 1.663s-.079 1.19-.235 1.674a3.45 3.45 0 0 1-.661 1.204 2.73 2.73 0 0 1-1.034.725 3.559 3.559 0 0 1-1.343.245Zm0-1.44c.49 0 .87-.16 1.14-.48.278-.32.416-.778.416-1.375v-1.108c0-.597-.138-1.056-.416-1.375-.27-.32-.65-.48-1.14-.48-.49 0-.874.16-1.151.48-.27.32-.405.778-.405 1.375v1.108c0 .597.135 1.056.405 1.376.277.32.66.48 1.15.48Zm7.631 1.44c-.505 0-.96-.079-1.365-.235a2.791 2.791 0 0 1-1.034-.715 3.346 3.346 0 0 1-.66-1.183c-.157-.476-.235-1.03-.235-1.663 0-.625.078-1.18.235-1.663.156-.49.376-.898.66-1.225a2.737 2.737 0 0 1 1.034-.757c.405-.17.86-.256 1.365-.256.689 0 1.258.142 1.705.426.448.278.807.718 1.077 1.322l-1.396.725a1.61 1.61 0 0 0-.469-.746c-.206-.192-.512-.288-.917-.288-.476 0-.86.156-1.151.469-.285.306-.427.753-.427 1.343v1.194c0 .59.142 1.041.427 1.354.291.305.675.458 1.151.458.398 0 .714-.106.949-.32.241-.22.419-.483.533-.788l1.321.767c-.277.569-.643 1.01-1.098 1.322-.447.306-1.016.458-1.705.458Zm6.787 0c-.491 0-.938-.082-1.344-.246a2.737 2.737 0 0 1-1.034-.725 3.448 3.448 0 0 1-.66-1.204c-.157-.484-.235-1.041-.235-1.674 0-.632.078-1.187.235-1.663.156-.483.376-.885.66-1.204a2.686 2.686 0 0 1 1.034-.736 3.565 3.565 0 0 1 1.344-.245c.49 0 .938.082 1.343.245.405.164.749.409 1.034.736.284.32.504.721.661 1.204.156.476.234 1.03.234 1.663s-.078 1.19-.234 1.674a3.466 3.466 0 0 1-.661 1.204c-.285.32-.629.562-1.034.725a3.56 3.56 0 0 1-1.343.245Zm0-1.44c.49 0 .87-.16 1.14-.48.277-.32.416-.778.416-1.375v-1.108c0-.597-.139-1.056-.416-1.375-.27-.32-.65-.48-1.14-.48-.491 0-.874.16-1.152.48-.27.32-.405.778-.405 1.375v1.108c0 .597.135 1.056.405 1.376.278.32.661.48 1.152.48Zm4.624 1.311v-7.44h1.621v6.001h2.835v1.44h-4.456Z" fill="#fff"/><path d="M47.985 41.493c-2.712 3.701-7.234 6.2-12.954 6.2-2.674 0-5.107-.47-7.263-1.355l9.773-5.614-2.395-4.192L23.1 43.454a16.53 16.53 0 0 1-3.018-3.586l12.294-7.066-2.396-4.191-11.93 6.854c-.718-2.269-1.101-4.778-1.101-7.489 0-11.037 7.387-19.583 18.454-19.583 4.293 0 9.342 1.663 12.13 5.518l7.235-5.749C50.629 2.567 42.265 0 35.404 0 18.981 0 6.477 10.806 6.477 27.966c0 4.654.93 8.912 2.626 12.643L0 45.839l2.395 4.191 9.113-5.23c.9 1.288 1.906 2.49 3.018 3.586L5.165 53.76l2.395 4.192 11-6.326c4.532 2.951 10.118 4.605 16.394 4.605 9.112 0 15.896-3.403 20.648-9.373l-7.617-5.365Z" fill="url(#a)"/><defs><linearGradient id="a" x1="-.012" y1="28.973" x2="55.59" y2="28.973" gradientUnits="userSpaceOnUse"><stop stop-color="#FFA455"/><stop offset="1" stop-color="#FBB03B"/></linearGradient></defs></svg>