<svg width="42" height="42" fill="none" xmlns="http://www.w3.org/2000/svg"><g clip-path="url(#a)"><path d="M41.125 34.914H28.197a.447.447 0 0 1-.447-.447v-2.07c0-.247.2-.447.447-.447h12.928c.247 0 .447.2.447.447v2.07c0 .247-.2.447-.447.447Z" fill="url(#b)"/><path d="M39.483 34.914h-9.645a.389.389 0 0 1-.389-.388v-2.188c0-.214.174-.388.389-.388h9.645c.215 0 .389.174.389.388v2.188a.389.389 0 0 1-.389.388Z" fill="url(#c)"/><path d="M36.321 34.914H33a.234.234 0 0 1-.234-.234v-2.496c0-.13.105-.234.234-.234h3.321c.13 0 .235.105.235.234v2.496c0 .13-.105.234-.235.234Z" fill="url(#d)"/><path d="M28.587 32.31c-.247 0-.447.201-.447.448v2.07c0 .029.003.057.008.084a.442.442 0 0 0 .049.003h12.927c.247 0 .448-.2.448-.448v-2.07a.455.455 0 0 0-.008-.084.471.471 0 0 0-.05-.002H28.588Z" fill="url(#e)"/><path d="M41.125 31.95H28.197a.447.447 0 0 1-.447-.448v-2.07c0-.247.2-.447.447-.447h12.928c.247 0 .447.2.447.447v2.07c0 .247-.2.448-.447.448Z" fill="url(#f)"/><path d="M39.483 31.95h-9.645a.389.389 0 0 1-.389-.389v-2.188c0-.214.174-.388.389-.388h9.645c.215 0 .389.174.389.388v2.188a.389.389 0 0 1-.389.389Z" fill="url(#g)"/><path d="M36.321 31.95H33a.234.234 0 0 1-.234-.235V29.22c0-.13.105-.234.234-.234h3.321c.13 0 .235.105.235.234v2.496c0 .13-.105.235-.235.235Z" fill="url(#h)"/><path d="M28.587 29.346c-.247 0-.447.2-.447.447v2.07c0 .029.003.057.008.084a.442.442 0 0 0 .049.003h12.927c.247 0 .448-.2.448-.448v-2.07a.454.454 0 0 0-.008-.083.445.445 0 0 0-.05-.003H28.588Z" fill="url(#i)"/><path d="M41.125 28.985H28.197a.447.447 0 0 1-.447-.447v-2.07c0-.247.2-.448.447-.448h12.928c.247 0 .447.2.447.448v2.07c0 .247-.2.447-.447.447Z" fill="url(#j)"/><path d="M39.483 28.985h-9.645a.389.389 0 0 1-.389-.389V26.41c0-.215.174-.389.389-.389h9.645c.215 0 .389.174.389.389v2.188a.389.389 0 0 1-.389.388Z" fill="url(#k)"/><path d="M36.321 28.985H33a.234.234 0 0 1-.234-.234v-2.496c0-.13.105-.235.234-.235h3.321c.13 0 .235.105.235.235v2.496c0 .13-.105.234-.235.234Z" fill="url(#l)"/><path d="M28.587 26.382c-.247 0-.447.2-.447.447v2.07c0 .029.003.057.008.084a.468.468 0 0 0 .049.003h12.927c.247 0 .448-.2.448-.448v-2.07a.455.455 0 0 0-.008-.084.471.471 0 0 0-.05-.002H28.588Z" fill="url(#m)"/><path d="M41.125 26.02H28.197a.447.447 0 0 1-.447-.447v-2.07c0-.247.2-.447.447-.447h12.928c.247 0 .447.2.447.448v2.07c0 .247-.2.447-.447.447Z" fill="url(#n)"/><path d="M39.483 26.02h-9.645a.389.389 0 0 1-.389-.388v-2.187c0-.215.174-.389.389-.389h9.645c.215 0 .389.174.389.389v2.187a.389.389 0 0 1-.389.389Z" fill="url(#o)"/><path d="M36.321 26.02H33a.234.234 0 0 1-.234-.233V23.29c0-.129.105-.234.234-.234h3.321c.13 0 .235.105.235.234v2.497c0 .129-.105.234-.235.234Z" fill="url(#p)"/><path d="M28.587 23.417c-.247 0-.447.2-.447.447v2.07c0 .029.003.057.008.084a.442.442 0 0 0 .049.003h12.927c.247 0 .448-.2.448-.448v-2.07a.455.455 0 0 0-.008-.084.445.445 0 0 0-.05-.002H28.588Z" fill="url(#q)"/><path d="M41.125 23.056H28.197a.447.447 0 0 1-.447-.448v-2.07c0-.247.2-.447.447-.447h12.928c.247 0 .447.2.447.448v2.07c0 .247-.2.447-.447.447Z" fill="url(#r)"/><path d="M39.483 23.056h-9.645a.389.389 0 0 1-.389-.389V20.48c0-.215.174-.389.389-.389h9.645c.215 0 .389.174.389.389v2.187a.389.389 0 0 1-.389.389Z" fill="url(#s)"/><path d="M36.321 23.056H33a.234.234 0 0 1-.234-.234v-2.496c0-.13.105-.235.234-.235h3.321c.13 0 .235.105.235.235v2.496c0 .13-.105.234-.235.234Z" fill="url(#t)"/><path d="M28.587 20.452c-.247 0-.447.2-.447.447v2.07c0 .029.003.057.008.084a.468.468 0 0 0 .049.003h12.927c.247 0 .448-.2.448-.448v-2.07a.455.455 0 0 0-.008-.084.471.471 0 0 0-.05-.002H28.588Z" fill="url(#u)"/><path d="M41.125 20.091H28.197a.447.447 0 0 1-.447-.447v-2.07c0-.248.2-.448.447-.448h12.928c.247 0 .447.2.447.448v2.07c0 .247-.2.447-.447.447Z" fill="url(#v)"/><path d="M39.483 20.091h-9.645a.389.389 0 0 1-.389-.389v-2.187c0-.215.174-.389.389-.389h9.645c.215 0 .389.174.389.389v2.187a.389.389 0 0 1-.389.389Z" fill="url(#w)"/><path d="M36.321 20.091H33a.234.234 0 0 1-.234-.234V17.36c0-.13.105-.235.234-.235h3.321c.13 0 .235.105.235.235v2.496c0 .13-.105.234-.235.234Z" fill="url(#x)"/><path d="M28.587 17.487c-.247 0-.447.2-.447.447v2.07c0 .029.003.057.008.084a.468.468 0 0 0 .049.003h12.927c.247 0 .448-.2.448-.448v-2.07a.455.455 0 0 0-.008-.083.471.471 0 0 0-.05-.003H28.588Z" fill="url(#y)"/><path d="M41.125 17.126H28.197a.447.447 0 0 1-.447-.447v-2.07c0-.247.2-.448.447-.448h12.928c.247 0 .447.2.447.448v2.07c0 .247-.2.447-.447.447Z" fill="url(#z)"/><path d="M39.483 17.126h-9.645a.389.389 0 0 1-.389-.388V14.55c0-.215.174-.389.389-.389h9.645c.215 0 .389.174.389.389v2.188a.389.389 0 0 1-.389.388Z" fill="url(#A)"/><path d="M36.321 17.126H33a.234.234 0 0 1-.234-.234v-2.496c0-.13.105-.235.234-.235h3.321c.13 0 .235.105.235.235v2.496c0 .13-.105.234-.235.234Z" fill="url(#B)"/><path d="M28.587 14.523c-.247 0-.447.2-.447.447v2.07c0 .029.003.057.008.084a.468.468 0 0 0 .049.003h12.927c.247 0 .448-.2.448-.448v-2.07a.455.455 0 0 0-.008-.084.471.471 0 0 0-.05-.002H28.588Z" fill="url(#C)"/><path d="M41.125 14.162H28.197a.447.447 0 0 1-.447-.448v-2.07c0-.246.2-.447.447-.447h12.928c.247 0 .447.2.447.448v2.07c0 .247-.2.447-.447.447Z" fill="url(#D)"/><path d="M39.483 14.162h-9.645a.389.389 0 0 1-.389-.389v-2.187c0-.215.174-.389.389-.389h9.645c.215 0 .389.174.389.389v2.187a.389.389 0 0 1-.389.389Z" fill="url(#E)"/><path d="M36.321 14.162H33a.234.234 0 0 1-.234-.234V11.43c0-.129.105-.234.234-.234h3.321c.13 0 .235.105.235.235v2.496c0 .13-.105.234-.235.234Z" fill="url(#F)"/><path d="M28.587 11.558c-.247 0-.447.2-.447.447v2.07c0 .029.003.057.008.084a.442.442 0 0 0 .049.003h12.927c.247 0 .448-.2.448-.448v-2.07a.453.453 0 0 0-.008-.083.445.445 0 0 0-.05-.003H28.588Z" fill="url(#G)"/><path d="m34.398 22.043-1.188-6.23a9.855 9.855 0 0 0-9.68-8.009h-4.457a9.855 9.855 0 0 0-9.68 8.01l-.674 3.531c-.648 3.395-1.682 6.716-3.23 9.806a6.162 6.162 0 0 0-.645 3.022c.128 3.151 2.902 5.863 6.055 5.925h.07c1.43.013 2.807.57 3.81 1.59a6.162 6.162 0 0 0 4.407 1.847 6.176 6.176 0 0 0 5.064-2.633c.36-.513.95-.805 1.577-.803h.01c.27 0 .535-.02.793-.058a1.91 1.91 0 0 1 1.383.336 6.16 6.16 0 0 0 3.887 1.124c3.105-.157 5.638-2.642 5.85-5.744a6.17 6.17 0 0 0-.592-3.103c-1.31-2.727-2.193-5.639-2.76-8.61Z" fill="url(#H)"/><path d="M11.023 38.099a6.185 6.185 0 1 0 0-12.37 6.185 6.185 0 0 0 0 12.37Z" fill="url(#I)"/><path d="M19.187 41.536a6.185 6.185 0 1 0 0-12.37 6.185 6.185 0 0 0 0 12.37Z" fill="url(#J)"/><path d="M31.58 39.51a6.185 6.185 0 1 0 0-12.37 6.185 6.185 0 0 0 0 12.37Z" fill="url(#K)"/><path d="M37.749 33.757a6.17 6.17 0 0 0-.591-3.103c-1.31-2.727-2.193-5.639-2.76-8.61l-1.188-6.23a9.825 9.825 0 0 0-2.101-4.451 9.836 9.836 0 0 0-6.285-2.265h-4.457a9.855 9.855 0 0 0-9.68 8.01l-.674 3.532c-.648 3.394-1.682 6.715-3.23 9.805a6.163 6.163 0 0 0-.645 3.023c.05 1.24.512 2.41 1.243 3.38 1.007.757 2.23 1.224 3.518 1.25h.069c1.43.013 2.808.57 3.812 1.59a6.162 6.162 0 0 0 4.406 1.847 6.176 6.176 0 0 0 5.063-2.633c.36-.513.951-.805 1.578-.803h.01c.27 0 .534-.02.793-.059a1.91 1.91 0 0 1 1.383.337 6.16 6.16 0 0 0 3.887 1.124c3.105-.157 5.638-2.642 5.849-5.744Z" fill="url(#L)"/><path d="M24.894 15.085a8.852 8.852 0 0 0-1.864-.373l-.005-.002-.907-.94a1.046 1.046 0 0 0-.582-.175c-.239 0-.44.056-.604.166-.165.111-.246.243-.246.395v.58c-1.299.183-2.37.663-3.213 1.44-.843.775-1.265 1.84-1.265 3.195 0 .552.097 1.056.291 1.511.194.456.418.828.672 1.12l3.515 3.518v2.09c-.582-.105-1.217-.4-1.903-.885-.687-.485-1.172-.727-1.456-.727-.403 0-.757.209-1.063.627-.306.418-.459.835-.459 1.253 0 .545.267 1.047.8 1.509l8.765 8.764c.148-.034.302-.052.457-.052h.011c.27 0 .534-.02.792-.058a1.91 1.91 0 0 1 1.384.337 6.16 6.16 0 0 0 3.887 1.124c3.105-.158 5.637-2.643 5.848-5.745a6.17 6.17 0 0 0-.59-3.103 33.144 33.144 0 0 1-2.152-5.92l-9.027-9.026c-.276-.277-.638-.485-1.086-.623Z" fill="url(#M)"/><path d="M26.517 24.23c-.186-.478-.41-.874-.671-1.187a4.692 4.692 0 0 0-1.041-.896c-.433-.283-.821-.5-1.165-.65-.343-.148-.76-.32-1.253-.514v-3.269a4.182 4.182 0 0 1 1.556.448c.5.254.854.38 1.063.38.433 0 .773-.212 1.019-.636.246-.425.37-.835.37-1.23 0-.368-.139-.691-.415-.968-.276-.277-.638-.485-1.086-.623a8.852 8.852 0 0 0-1.276-.3c-.403-.061-.813-.1-1.231-.115v-.517c0-.138-.09-.265-.269-.382a1.045 1.045 0 0 0-.582-.176c-.239 0-.44.056-.604.166-.165.111-.246.243-.246.395v.58c-1.299.183-2.37.663-3.213 1.44-.843.775-1.265 1.84-1.265 3.195 0 .552.097 1.056.291 1.511.194.456.418.828.672 1.12.253.29.612.574 1.074.85.463.277.851.482 1.165.616.313.134.738.306 1.276.515v3.627c-.582-.105-1.217-.4-1.903-.885-.687-.485-1.172-.727-1.456-.727-.403 0-.757.209-1.063.627-.306.418-.459.835-.459 1.253 0 .732.482 1.388 1.444 1.97.963.582 2.108.896 3.437.94v.56c0 .164.081.306.246.426a1 1 0 0 0 .604.179.989.989 0 0 0 .582-.19c.18-.128.269-.266.269-.415V30.7c1.343-.224 2.414-.754 3.212-1.59.799-.835 1.198-1.932 1.198-3.29 0-.582-.093-1.112-.28-1.59Zm-5.608-3.784c-.955-.403-1.432-.873-1.432-1.41 0-.642.477-1.06 1.432-1.255v2.665Zm1.254 7.141v-3c.91.433 1.366.963 1.366 1.59 0 .731-.456 1.201-1.366 1.41Z" fill="url(#N)"/><path d="M24.339 7.804h-6.075L15.5 2.506A1.31 1.31 0 0 1 16.425.61l1.81-.332a17 17 0 0 1 6.132 0l1.81.332a1.31 1.31 0 0 1 .926 1.895l-2.764 5.298Z" fill="url(#O)"/><path d="M22.311 7.804h-2.02l-.92-5.298c-.135-.783.02-1.736.308-1.895l.602-.332c.675-.372 1.366-.372 2.04 0l.602.332c.288.159.443 1.112.308 1.895l-.92 5.298Z" fill="url(#P)"/><path d="M27.011 1.144a.339.339 0 0 1-.125.496 3.025 3.025 0 0 1-2.743 0l-.762-.387a3.025 3.025 0 0 0-2.743 0l-.761.387a3.026 3.026 0 0 1-2.743 0l-.798-.405c-.279-.142-.227-.565.081-.622l.008-.002 1.81-.333a17.025 17.025 0 0 1 6.132 0l1.81.333c.357.065.646.265.834.533Z" fill="url(#Q)"/><path d="M27.12 1.886c.041-.098.07-.2.092-.302a1.307 1.307 0 0 0-1.035-.973l-1.81-.332a17 17 0 0 0-6.132 0l-1.35.247c-.169.405-.19.908-.004 1.36l2.439 5.918h5.019l1.631-3.128 1.15-2.79Z" fill="url(#R)"/><path d="M21.301 8.398c-1.317 0-2.563-.085-3.585-.242a.595.595 0 0 1 .177-1.175c.959.147 2.166.23 3.408.23s2.45-.083 3.409-.23a.593.593 0 1 1 .176 1.175c-1.021.157-2.268.242-3.585.242Z" fill="url(#S)"/><path d="M14.236 24.555a.446.446 0 0 0-.433-.343H7.49a34.534 34.534 0 0 1-2 4.939 6.163 6.163 0 0 0-.646 3.022c.128 3.151 2.902 5.863 6.055 5.925h.07c1.43.013 2.808.57 3.81 1.59a6.162 6.162 0 0 0 4.407 1.847 6.176 6.176 0 0 0 5.064-2.633c.36-.513.95-.804 1.577-.803h.011c.27 0 .534-.02.792-.058a1.91 1.91 0 0 1 1.384.336c.046.033.093.064.14.096L14.236 24.555Z" fill="url(#T)"/><path d="M13.803 42H.875a.447.447 0 0 1-.447-.448v-2.07c0-.247.2-.447.447-.447h12.928c.247 0 .447.2.447.448v2.07c0 .247-.2.447-.447.447Z" fill="url(#U)"/><path d="M12.162 42H2.516a.389.389 0 0 1-.388-.389v-2.187c0-.215.174-.389.388-.389h9.646c.214 0 .388.174.388.389v2.187a.388.388 0 0 1-.388.389Z" fill="url(#V)"/><path d="M9 42H5.68a.234.234 0 0 1-.235-.234v-2.497c0-.129.105-.234.235-.234H9c.13 0 .234.105.234.234v2.497c0 .129-.105.234-.234.234Z" fill="url(#W)"/><path d="M1.266 39.396c-.247 0-.448.2-.448.448v2.07c0 .028.003.056.009.083A.443.443 0 0 0 .876 42h12.927c.247 0 .448-.2.448-.447v-2.07a.446.446 0 0 0-.008-.084.467.467 0 0 0-.05-.003H1.266Z" fill="url(#X)"/><path d="M13.803 39.035H.875a.447.447 0 0 1-.447-.447v-2.07c0-.247.2-.447.447-.447h12.928c.247 0 .447.2.447.447v2.07c0 .247-.2.447-.447.447Z" fill="url(#Y)"/><path d="M12.162 39.035H2.516a.388.388 0 0 1-.388-.388v-2.188c0-.215.174-.389.388-.389h9.646c.214 0 .388.174.388.389v2.188a.388.388 0 0 1-.388.388Z" fill="url(#Z)"/><path d="M9 39.035H5.68a.234.234 0 0 1-.235-.234v-2.496c0-.13.105-.234.235-.234H9c.13 0 .234.105.234.234v2.496c0 .13-.105.234-.234.234Z" fill="url(#aa)"/><path d="M1.266 36.431c-.247 0-.448.2-.448.448v2.07c0 .028.003.056.009.084a.443.443 0 0 0 .049.002h12.927c.247 0 .448-.2.448-.447v-2.07a.446.446 0 0 0-.008-.084.442.442 0 0 0-.05-.003H1.266Z" fill="url(#ab)"/><path d="M13.803 36.07H.875a.447.447 0 0 1-.447-.447v-2.07c0-.247.2-.447.447-.447h12.928c.247 0 .447.2.447.447v2.07c0 .247-.2.448-.447.448Z" fill="url(#ac)"/><path d="M12.162 36.07H2.516a.388.388 0 0 1-.388-.388v-2.188c0-.214.174-.388.388-.388h9.646c.214 0 .388.174.388.389v2.187a.388.388 0 0 1-.388.389Z" fill="url(#ad)"/><path d="M9 36.07H5.68a.234.234 0 0 1-.235-.234V33.34c0-.13.105-.234.235-.234H9c.13 0 .234.105.234.234v2.496c0 .13-.105.235-.234.235Z" fill="url(#ae)"/><path d="M1.266 33.467c-.247 0-.448.2-.448.447v2.07c0 .029.003.057.009.084a.443.443 0 0 0 .049.003h12.927c.247 0 .448-.2.448-.448v-2.07a.447.447 0 0 0-.008-.084.467.467 0 0 0-.05-.002H1.266Z" fill="url(#af)"/><path d="M13.803 33.106H.875a.447.447 0 0 1-.447-.448v-2.07c0-.247.2-.447.447-.447h12.928c.247 0 .447.2.447.448v2.07c0 .247-.2.447-.447.447Z" fill="url(#ag)"/><path d="M12.162 33.106H2.516a.389.389 0 0 1-.388-.389V30.53c0-.214.174-.388.388-.388h9.646c.214 0 .388.174.388.389v2.187a.388.388 0 0 1-.388.389Z" fill="url(#ah)"/><path d="M9 33.106H5.68a.234.234 0 0 1-.235-.235v-2.496c0-.129.105-.234.235-.234H9c.13 0 .234.105.234.234v2.496c0 .13-.105.235-.234.235Z" fill="url(#ai)"/><path d="M1.266 30.502c-.247 0-.448.2-.448.447v2.07c0 .029.003.057.009.084a.443.443 0 0 0 .049.003h12.927c.247 0 .448-.2.448-.448v-2.07a.447.447 0 0 0-.008-.084.442.442 0 0 0-.05-.002H1.266Z" fill="url(#aj)"/><path d="M13.803 30.141H.875a.447.447 0 0 1-.447-.447v-2.07c0-.247.2-.447.447-.447h12.928c.247 0 .447.2.447.447v2.07c0 .247-.2.447-.447.447Z" fill="url(#ak)"/><path d="M12.162 30.141H2.516a.389.389 0 0 1-.388-.388v-2.188c0-.214.174-.388.388-.388h9.646c.214 0 .388.174.388.388v2.188a.389.389 0 0 1-.388.388Z" fill="url(#al)"/><path d="M9 30.141H5.68a.234.234 0 0 1-.235-.234v-2.496c0-.13.105-.234.235-.234H9c.13 0 .234.105.234.234v2.496c0 .13-.105.234-.234.234Z" fill="url(#am)"/><path d="M1.266 27.537c-.247 0-.448.2-.448.448v2.07c0 .028.003.056.009.083a.469.469 0 0 0 .049.003h12.927c.247 0 .448-.2.448-.447v-2.07a.446.446 0 0 0-.008-.084.467.467 0 0 0-.05-.003H1.266Z" fill="url(#an)"/><path d="M13.803 27.176H.875a.447.447 0 0 1-.447-.447v-2.07c0-.247.2-.447.447-.447h12.928c.247 0 .447.2.447.447v2.07c0 .247-.2.447-.447.447Z" fill="url(#ao)"/><path d="M12.162 27.177H2.516a.388.388 0 0 1-.388-.389V24.6c0-.214.174-.388.388-.388h9.646c.214 0 .388.174.388.389v2.187a.388.388 0 0 1-.388.389Z" fill="url(#ap)"/><path d="M9 27.176H5.68a.234.234 0 0 1-.235-.234v-2.496c0-.13.105-.234.235-.234H9c.13 0 .234.105.234.234v2.496c0 .13-.105.234-.234.234Z" fill="url(#aq)"/><path d="M1.266 24.572c-.247 0-.448.2-.448.448v2.07c0 .028.003.056.009.084a.469.469 0 0 0 .049.002h12.927c.247 0 .448-.2.448-.447v-2.07a.447.447 0 0 0-.008-.084.467.467 0 0 0-.05-.003H1.266Z" fill="url(#ar)"/><path d="M38.043 42H25.115a.447.447 0 0 1-.447-.448v-2.07c0-.247.2-.447.447-.447h12.928c.247 0 .447.2.447.448v2.07c0 .247-.2.447-.447.447Z" fill="url(#as)"/><path d="M36.402 42h-9.645a.389.389 0 0 1-.389-.389v-2.187c0-.215.174-.389.389-.389h9.645c.215 0 .389.174.389.389v2.187a.389.389 0 0 1-.389.389Z" fill="url(#at)"/><path d="M33.24 42h-3.322a.234.234 0 0 1-.234-.234v-2.497c0-.129.105-.234.234-.234h3.322c.13 0 .234.105.234.234v2.497c0 .129-.105.234-.234.234Z" fill="url(#au)"/><path d="M25.506 39.396c-.247 0-.448.2-.448.448v2.07c0 .028.003.056.008.083a.442.442 0 0 0 .05.003h12.927c.247 0 .447-.2.447-.447v-2.07a.446.446 0 0 0-.008-.084.468.468 0 0 0-.049-.003H25.506Z" fill="url(#av)"/><path d="M38.043 39.035H25.115a.447.447 0 0 1-.447-.447v-2.07c0-.247.2-.447.447-.447h12.928c.247 0 .447.2.447.447v2.07c0 .247-.2.447-.447.447Z" fill="url(#aw)"/><path d="M36.402 39.035h-9.645a.389.389 0 0 1-.389-.388v-2.188c0-.215.174-.389.389-.389h9.645c.215 0 .389.174.389.389v2.188a.389.389 0 0 1-.389.388Z" fill="url(#ax)"/><path d="M33.24 39.035h-3.322a.234.234 0 0 1-.234-.234v-2.496c0-.13.105-.234.234-.234h3.322c.13 0 .234.105.234.234v2.496c0 .13-.105.234-.234.234Z" fill="url(#ay)"/><path d="M25.506 36.431c-.247 0-.448.2-.448.448v2.07c0 .028.003.056.008.084a.442.442 0 0 0 .05.002h12.927c.247 0 .447-.2.447-.447v-2.07a.446.446 0 0 0-.008-.084.442.442 0 0 0-.049-.003H25.506Z" fill="url(#az)"/><path d="M7.663 17.268a10.485 10.485 0 0 0-3.09 3.108.461.461 0 0 1-.773-.001 10.487 10.487 0 0 0-3.079-3.12.461.461 0 0 1 .001-.767 10.485 10.485 0 0 0 3.09-3.11.461.461 0 0 1 .774.002 10.486 10.486 0 0 0 3.079 3.12.461.461 0 0 1-.002.768Z" fill="url(#aA)"/><path d="M12.588 6.052a7.415 7.415 0 0 0-2.185 2.199.326.326 0 0 1-.547-.001A7.416 7.416 0 0 0 7.68 6.043.326.326 0 0 1 7.68 5.5a7.415 7.415 0 0 0 2.185-2.198.326.326 0 0 1 .547.001 7.415 7.415 0 0 0 2.177 2.206.326.326 0 0 1 0 .543Z" fill="url(#aB)"/><path d="M36.336 8.08a7.414 7.414 0 0 0-2.185 2.198.326.326 0 0 1-.547 0 7.417 7.417 0 0 0-2.177-2.207.326.326 0 0 1 .001-.543 7.416 7.416 0 0 0 2.186-2.198.326.326 0 0 1 .546 0 7.417 7.417 0 0 0 2.177 2.207.326.326 0 0 1 0 .543Z" fill="url(#aC)"/></g><defs><linearGradient id="b" x1="34.661" y1="32.011" x2="34.661" y2="35.855" gradientUnits="userSpaceOnUse"><stop stop-color="#E4F2FF"/><stop offset="1" stop-color="#B2CBFF"/></linearGradient><linearGradient id="c" x1="34.66" y1="32.066" x2="34.66" y2="38.531" gradientUnits="userSpaceOnUse"><stop stop-color="#3F3CED" stop-opacity="0"/><stop offset=".28" stop-color="#3C3DE4" stop-opacity=".28"/><stop offset=".731" stop-color="#3541CC" stop-opacity=".731"/><stop offset="1" stop-color="#2F43BB"/></linearGradient><linearGradient id="d" x1="34.661" y1="32.066" x2="34.661" y2="38.531" gradientUnits="userSpaceOnUse"><stop stop-color="#3F3CED" stop-opacity="0"/><stop offset=".28" stop-color="#3C3DE4" stop-opacity=".28"/><stop offset=".731" stop-color="#3541CC" stop-opacity=".731"/><stop offset="1" stop-color="#2F43BB"/></linearGradient><linearGradient id="e" x1="34.645" y1="33.102" x2="33.112" y2="29.396" gradientUnits="userSpaceOnUse"><stop stop-color="#fff" stop-opacity="0"/><stop offset="1" stop-color="#fff"/></linearGradient><linearGradient id="f" x1="34.661" y1="29.046" x2="34.661" y2="32.89" gradientUnits="userSpaceOnUse"><stop stop-color="#E4F2FF"/><stop offset="1" stop-color="#B2CBFF"/></linearGradient><linearGradient id="g" x1="34.66" y1="29.102" x2="34.66" y2="35.566" gradientUnits="userSpaceOnUse"><stop stop-color="#3F3CED" stop-opacity="0"/><stop offset=".28" stop-color="#3C3DE4" stop-opacity=".28"/><stop offset=".731" stop-color="#3541CC" stop-opacity=".731"/><stop offset="1" stop-color="#2F43BB"/></linearGradient><linearGradient id="h" x1="34.661" y1="29.102" x2="34.661" y2="35.566" gradientUnits="userSpaceOnUse"><stop stop-color="#3F3CED" stop-opacity="0"/><stop offset=".28" stop-color="#3C3DE4" stop-opacity=".28"/><stop offset=".731" stop-color="#3541CC" stop-opacity=".731"/><stop offset="1" stop-color="#2F43BB"/></linearGradient><linearGradient id="i" x1="34.645" y1="30.137" x2="33.112" y2="26.431" gradientUnits="userSpaceOnUse"><stop stop-color="#fff" stop-opacity="0"/><stop offset="1" stop-color="#fff"/></linearGradient><linearGradient id="j" x1="34.661" y1="26.081" x2="34.661" y2="29.925" gradientUnits="userSpaceOnUse"><stop stop-color="#E4F2FF"/><stop offset="1" stop-color="#B2CBFF"/></linearGradient><linearGradient id="k" x1="34.66" y1="26.137" x2="34.66" y2="32.602" gradientUnits="userSpaceOnUse"><stop stop-color="#3F3CED" stop-opacity="0"/><stop offset=".28" stop-color="#3C3DE4" stop-opacity=".28"/><stop offset=".731" stop-color="#3541CC" stop-opacity=".731"/><stop offset="1" stop-color="#2F43BB"/></linearGradient><linearGradient id="l" x1="34.661" y1="26.137" x2="34.661" y2="32.602" gradientUnits="userSpaceOnUse"><stop stop-color="#3F3CED" stop-opacity="0"/><stop offset=".28" stop-color="#3C3DE4" stop-opacity=".28"/><stop offset=".731" stop-color="#3541CC" stop-opacity=".731"/><stop offset="1" stop-color="#2F43BB"/></linearGradient><linearGradient id="m" x1="34.645" y1="27.173" x2="33.112" y2="23.467" gradientUnits="userSpaceOnUse"><stop stop-color="#fff" stop-opacity="0"/><stop offset="1" stop-color="#fff"/></linearGradient><linearGradient id="n" x1="34.661" y1="23.117" x2="34.661" y2="26.961" gradientUnits="userSpaceOnUse"><stop stop-color="#E4F2FF"/><stop offset="1" stop-color="#B2CBFF"/></linearGradient><linearGradient id="o" x1="34.66" y1="23.173" x2="34.66" y2="29.637" gradientUnits="userSpaceOnUse"><stop stop-color="#3F3CED" stop-opacity="0"/><stop offset=".28" stop-color="#3C3DE4" stop-opacity=".28"/><stop offset=".731" stop-color="#3541CC" stop-opacity=".731"/><stop offset="1" stop-color="#2F43BB"/></linearGradient><linearGradient id="p" x1="34.661" y1="23.173" x2="34.661" y2="29.637" gradientUnits="userSpaceOnUse"><stop stop-color="#3F3CED" stop-opacity="0"/><stop offset=".28" stop-color="#3C3DE4" stop-opacity=".28"/><stop offset=".731" stop-color="#3541CC" stop-opacity=".731"/><stop offset="1" stop-color="#2F43BB"/></linearGradient><linearGradient id="q" x1="34.645" y1="24.208" x2="33.112" y2="20.502" gradientUnits="userSpaceOnUse"><stop stop-color="#fff" stop-opacity="0"/><stop offset="1" stop-color="#fff"/></linearGradient><linearGradient id="r" x1="34.661" y1="20.152" x2="34.661" y2="23.996" gradientUnits="userSpaceOnUse"><stop stop-color="#E4F2FF"/><stop offset="1" stop-color="#B2CBFF"/></linearGradient><linearGradient id="s" x1="34.66" y1="20.208" x2="34.66" y2="26.672" gradientUnits="userSpaceOnUse"><stop stop-color="#3F3CED" stop-opacity="0"/><stop offset=".28" stop-color="#3C3DE4" stop-opacity=".28"/><stop offset=".731" stop-color="#3541CC" stop-opacity=".731"/><stop offset="1" stop-color="#2F43BB"/></linearGradient><linearGradient id="t" x1="34.661" y1="20.208" x2="34.661" y2="26.672" gradientUnits="userSpaceOnUse"><stop stop-color="#3F3CED" stop-opacity="0"/><stop offset=".28" stop-color="#3C3DE4" stop-opacity=".28"/><stop offset=".731" stop-color="#3541CC" stop-opacity=".731"/><stop offset="1" stop-color="#2F43BB"/></linearGradient><linearGradient id="u" x1="34.645" y1="21.244" x2="33.112" y2="17.537" gradientUnits="userSpaceOnUse"><stop stop-color="#fff" stop-opacity="0"/><stop offset="1" stop-color="#fff"/></linearGradient><linearGradient id="v" x1="34.661" y1="17.187" x2="34.661" y2="21.031" gradientUnits="userSpaceOnUse"><stop stop-color="#E4F2FF"/><stop offset="1" stop-color="#B2CBFF"/></linearGradient><linearGradient id="w" x1="34.66" y1="17.243" x2="34.66" y2="23.708" gradientUnits="userSpaceOnUse"><stop stop-color="#3F3CED" stop-opacity="0"/><stop offset=".28" stop-color="#3C3DE4" stop-opacity=".28"/><stop offset=".731" stop-color="#3541CC" stop-opacity=".731"/><stop offset="1" stop-color="#2F43BB"/></linearGradient><linearGradient id="x" x1="34.661" y1="17.243" x2="34.661" y2="23.708" gradientUnits="userSpaceOnUse"><stop stop-color="#3F3CED" stop-opacity="0"/><stop offset=".28" stop-color="#3C3DE4" stop-opacity=".28"/><stop offset=".731" stop-color="#3541CC" stop-opacity=".731"/><stop offset="1" stop-color="#2F43BB"/></linearGradient><linearGradient id="y" x1="34.645" y1="18.279" x2="33.112" y2="14.572" gradientUnits="userSpaceOnUse"><stop stop-color="#fff" stop-opacity="0"/><stop offset="1" stop-color="#fff"/></linearGradient><linearGradient id="z" x1="34.661" y1="14.223" x2="34.661" y2="18.066" gradientUnits="userSpaceOnUse"><stop stop-color="#E4F2FF"/><stop offset="1" stop-color="#B2CBFF"/></linearGradient><linearGradient id="A" x1="34.66" y1="14.278" x2="34.66" y2="20.743" gradientUnits="userSpaceOnUse"><stop stop-color="#3F3CED" stop-opacity="0"/><stop offset=".28" stop-color="#3C3DE4" stop-opacity=".28"/><stop offset=".731" stop-color="#3541CC" stop-opacity=".731"/><stop offset="1" stop-color="#2F43BB"/></linearGradient><linearGradient id="B" x1="34.661" y1="14.278" x2="34.661" y2="20.743" gradientUnits="userSpaceOnUse"><stop stop-color="#3F3CED" stop-opacity="0"/><stop offset=".28" stop-color="#3C3DE4" stop-opacity=".28"/><stop offset=".731" stop-color="#3541CC" stop-opacity=".731"/><stop offset="1" stop-color="#2F43BB"/></linearGradient><linearGradient id="C" x1="34.645" y1="15.314" x2="33.112" y2="11.608" gradientUnits="userSpaceOnUse"><stop stop-color="#fff" stop-opacity="0"/><stop offset="1" stop-color="#fff"/></linearGradient><linearGradient id="D" x1="34.661" y1="11.258" x2="34.661" y2="15.102" gradientUnits="userSpaceOnUse"><stop stop-color="#E4F2FF"/><stop offset="1" stop-color="#B2CBFF"/></linearGradient><linearGradient id="E" x1="34.66" y1="11.314" x2="34.66" y2="17.779" gradientUnits="userSpaceOnUse"><stop stop-color="#3F3CED" stop-opacity="0"/><stop offset=".28" stop-color="#3C3DE4" stop-opacity=".28"/><stop offset=".731" stop-color="#3541CC" stop-opacity=".731"/><stop offset="1" stop-color="#2F43BB"/></linearGradient><linearGradient id="F" x1="34.661" y1="11.314" x2="34.661" y2="17.779" gradientUnits="userSpaceOnUse"><stop stop-color="#3F3CED" stop-opacity="0"/><stop offset=".28" stop-color="#3C3DE4" stop-opacity=".28"/><stop offset=".731" stop-color="#3541CC" stop-opacity=".731"/><stop offset="1" stop-color="#2F43BB"/></linearGradient><linearGradient id="G" x1="34.645" y1="12.35" x2="33.112" y2="8.643" gradientUnits="userSpaceOnUse"><stop stop-color="#fff" stop-opacity="0"/><stop offset="1" stop-color="#fff"/></linearGradient><linearGradient id="I" x1="11.087" y1="29.912" x2="10.197" y2="57.669" gradientUnits="userSpaceOnUse"><stop stop-color="#005A01" stop-opacity="0"/><stop offset="1" stop-color="#005A01"/></linearGradient><linearGradient id="J" x1="19.194" y1="35.381" x2="23.153" y2="50.489" gradientUnits="userSpaceOnUse"><stop stop-color="#005A01" stop-opacity="0"/><stop offset="1" stop-color="#005A01"/></linearGradient><linearGradient id="K" x1="31.442" y1="35.084" x2="29.991" y2="53.688" gradientUnits="userSpaceOnUse"><stop stop-color="#005A01" stop-opacity="0"/><stop offset="1" stop-color="#005A01"/></linearGradient><linearGradient id="L" x1="19.37" y1="24.22" x2=".765" y2="-9.031" gradientUnits="userSpaceOnUse"><stop stop-color="#91F27F" stop-opacity="0"/><stop offset="1" stop-color="#FFED82"/></linearGradient><linearGradient id="M" x1="32.348" y1="30.659" x2="8.772" y2="17.319" gradientUnits="userSpaceOnUse"><stop stop-color="#005A01" stop-opacity="0"/><stop offset="1" stop-color="#005A01"/></linearGradient><linearGradient id="N" x1="18.599" y1="20.222" x2="31.513" y2="31.354" gradientUnits="userSpaceOnUse"><stop stop-color="#FFC738"/><stop offset=".188" stop-color="#FDBF3C"/><stop offset=".484" stop-color="#F7A848"/><stop offset=".849" stop-color="#ED835B"/><stop offset="1" stop-color="#E97264"/></linearGradient><linearGradient id="O" x1="19.811" y1="-1.25" x2="24.166" y2="7.954" gradientUnits="userSpaceOnUse"><stop stop-color="#4AB272"/><stop offset=".339" stop-color="#47B071"/><stop offset=".55" stop-color="#3FA870"/><stop offset=".727" stop-color="#309B6D"/><stop offset=".884" stop-color="#1C8869"/><stop offset="1" stop-color="#077565"/></linearGradient><linearGradient id="P" x1="21.241" y1="3.608" x2="27.113" y2="12.713" gradientUnits="userSpaceOnUse"><stop stop-color="#005A01" stop-opacity="0"/><stop offset="1" stop-color="#005A01"/></linearGradient><linearGradient id="Q" x1="21.529" y1=".307" x2="21.826" y2="3.227" gradientUnits="userSpaceOnUse"><stop stop-color="#005A01" stop-opacity="0"/><stop offset="1" stop-color="#005A01"/></linearGradient><linearGradient id="R" x1="20.241" y1="3.9" x2="9.009" y2="3.702" gradientUnits="userSpaceOnUse"><stop stop-color="#91F27F" stop-opacity="0"/><stop offset="1" stop-color="#FFED82"/></linearGradient><linearGradient id="S" x1="21.301" y1="7.219" x2="21.301" y2="8.619" gradientUnits="userSpaceOnUse"><stop stop-color="#FFC738"/><stop offset=".188" stop-color="#FDBF3C"/><stop offset=".484" stop-color="#F7A848"/><stop offset=".849" stop-color="#ED835B"/><stop offset="1" stop-color="#E97264"/></linearGradient><linearGradient id="T" x1="20.215" y1="33.194" x2="11.507" y2="32.468" gradientUnits="userSpaceOnUse"><stop stop-color="#005A01" stop-opacity="0"/><stop offset="1" stop-color="#005A01"/></linearGradient><linearGradient id="U" x1="7.339" y1="39.096" x2="7.339" y2="42.94" gradientUnits="userSpaceOnUse"><stop stop-color="#FFD945"/><stop offset=".304" stop-color="#FFCD3E"/><stop offset=".856" stop-color="#FFAD2B"/><stop offset="1" stop-color="#FFA325"/></linearGradient><linearGradient id="V" x1="7.339" y1="39.152" x2="7.339" y2="45.616" gradientUnits="userSpaceOnUse"><stop stop-color="#E87264" stop-opacity="0"/><stop offset="1" stop-color="#FF7044"/></linearGradient><linearGradient id="W" x1="7.339" y1="39.152" x2="7.339" y2="45.616" gradientUnits="userSpaceOnUse"><stop stop-color="#E87264" stop-opacity="0"/><stop offset="1" stop-color="#FF7044"/></linearGradient><linearGradient id="X" x1="7.324" y1="40.188" x2="5.791" y2="36.481" gradientUnits="userSpaceOnUse"><stop stop-color="#FFD945" stop-opacity="0"/><stop offset="1" stop-color="#FBED21"/></linearGradient><linearGradient id="Y" x1="7.339" y1="36.132" x2="7.339" y2="39.976" gradientUnits="userSpaceOnUse"><stop stop-color="#FFD945"/><stop offset=".304" stop-color="#FFCD3E"/><stop offset=".856" stop-color="#FFAD2B"/><stop offset="1" stop-color="#FFA325"/></linearGradient><linearGradient id="Z" x1="7.339" y1="36.187" x2="7.339" y2="42.652" gradientUnits="userSpaceOnUse"><stop stop-color="#E87264" stop-opacity="0"/><stop offset="1" stop-color="#FF7044"/></linearGradient><linearGradient id="aa" x1="7.339" y1="36.188" x2="7.339" y2="42.652" gradientUnits="userSpaceOnUse"><stop stop-color="#E87264" stop-opacity="0"/><stop offset="1" stop-color="#FF7044"/></linearGradient><linearGradient id="ab" x1="7.324" y1="37.223" x2="5.791" y2="33.517" gradientUnits="userSpaceOnUse"><stop stop-color="#FFD945" stop-opacity="0"/><stop offset="1" stop-color="#FBED21"/></linearGradient><linearGradient id="ac" x1="7.339" y1="33.167" x2="7.339" y2="37.011" gradientUnits="userSpaceOnUse"><stop stop-color="#FFD945"/><stop offset=".304" stop-color="#FFCD3E"/><stop offset=".856" stop-color="#FFAD2B"/><stop offset="1" stop-color="#FFA325"/></linearGradient><linearGradient id="ad" x1="7.339" y1="33.223" x2="7.339" y2="39.687" gradientUnits="userSpaceOnUse"><stop stop-color="#E87264" stop-opacity="0"/><stop offset="1" stop-color="#FF7044"/></linearGradient><linearGradient id="ae" x1="7.339" y1="33.223" x2="7.339" y2="39.687" gradientUnits="userSpaceOnUse"><stop stop-color="#E87264" stop-opacity="0"/><stop offset="1" stop-color="#FF7044"/></linearGradient><linearGradient id="af" x1="7.324" y1="34.258" x2="5.791" y2="30.552" gradientUnits="userSpaceOnUse"><stop stop-color="#FFD945" stop-opacity="0"/><stop offset="1" stop-color="#FBED21"/></linearGradient><linearGradient id="ag" x1="7.339" y1="30.202" x2="7.339" y2="34.046" gradientUnits="userSpaceOnUse"><stop stop-color="#FFD945"/><stop offset=".304" stop-color="#FFCD3E"/><stop offset=".856" stop-color="#FFAD2B"/><stop offset="1" stop-color="#FFA325"/></linearGradient><linearGradient id="ah" x1="7.339" y1="30.258" x2="7.339" y2="36.722" gradientUnits="userSpaceOnUse"><stop stop-color="#E87264" stop-opacity="0"/><stop offset="1" stop-color="#FF7044"/></linearGradient><linearGradient id="ai" x1="7.339" y1="30.258" x2="7.339" y2="36.722" gradientUnits="userSpaceOnUse"><stop stop-color="#E87264" stop-opacity="0"/><stop offset="1" stop-color="#FF7044"/></linearGradient><linearGradient id="aj" x1="7.324" y1="31.293" x2="5.791" y2="27.587" gradientUnits="userSpaceOnUse"><stop stop-color="#FFD945" stop-opacity="0"/><stop offset="1" stop-color="#FBED21"/></linearGradient><linearGradient id="ak" x1="7.339" y1="27.238" x2="7.339" y2="31.082" gradientUnits="userSpaceOnUse"><stop stop-color="#FFD945"/><stop offset=".304" stop-color="#FFCD3E"/><stop offset=".856" stop-color="#FFAD2B"/><stop offset="1" stop-color="#FFA325"/></linearGradient><linearGradient id="al" x1="7.339" y1="27.293" x2="7.339" y2="33.758" gradientUnits="userSpaceOnUse"><stop stop-color="#E87264" stop-opacity="0"/><stop offset="1" stop-color="#FF7044"/></linearGradient><linearGradient id="am" x1="7.339" y1="27.293" x2="7.339" y2="33.758" gradientUnits="userSpaceOnUse"><stop stop-color="#E87264" stop-opacity="0"/><stop offset="1" stop-color="#FF7044"/></linearGradient><linearGradient id="an" x1="7.324" y1="28.329" x2="5.791" y2="24.622" gradientUnits="userSpaceOnUse"><stop stop-color="#FFD945" stop-opacity="0"/><stop offset="1" stop-color="#FBED21"/></linearGradient><linearGradient id="ao" x1="7.339" y1="24.273" x2="7.339" y2="28.117" gradientUnits="userSpaceOnUse"><stop stop-color="#FFD945"/><stop offset=".304" stop-color="#FFCD3E"/><stop offset=".856" stop-color="#FFAD2B"/><stop offset="1" stop-color="#FFA325"/></linearGradient><linearGradient id="ap" x1="7.339" y1="24.329" x2="7.339" y2="30.793" gradientUnits="userSpaceOnUse"><stop stop-color="#E87264" stop-opacity="0"/><stop offset="1" stop-color="#FF7044"/></linearGradient><linearGradient id="aq" x1="7.339" y1="24.328" x2="7.339" y2="30.793" gradientUnits="userSpaceOnUse"><stop stop-color="#E87264" stop-opacity="0"/><stop offset="1" stop-color="#FF7044"/></linearGradient><linearGradient id="ar" x1="7.324" y1="25.364" x2="5.791" y2="21.657" gradientUnits="userSpaceOnUse"><stop stop-color="#FFD945" stop-opacity="0"/><stop offset="1" stop-color="#FBED21"/></linearGradient><linearGradient id="as" x1="31.579" y1="39.096" x2="31.579" y2="42.94" gradientUnits="userSpaceOnUse"><stop stop-color="#FFD945"/><stop offset=".304" stop-color="#FFCD3E"/><stop offset=".856" stop-color="#FFAD2B"/><stop offset="1" stop-color="#FFA325"/></linearGradient><linearGradient id="at" x1="31.579" y1="39.152" x2="31.579" y2="45.616" gradientUnits="userSpaceOnUse"><stop stop-color="#E87264" stop-opacity="0"/><stop offset="1" stop-color="#FF7044"/></linearGradient><linearGradient id="au" x1="31.579" y1="39.152" x2="31.579" y2="45.616" gradientUnits="userSpaceOnUse"><stop stop-color="#E87264" stop-opacity="0"/><stop offset="1" stop-color="#FF7044"/></linearGradient><linearGradient id="av" x1="31.563" y1="40.188" x2="30.03" y2="36.481" gradientUnits="userSpaceOnUse"><stop stop-color="#FFD945" stop-opacity="0"/><stop offset="1" stop-color="#FBED21"/></linearGradient><linearGradient id="aw" x1="31.579" y1="36.132" x2="31.579" y2="39.976" gradientUnits="userSpaceOnUse"><stop stop-color="#FFD945"/><stop offset=".304" stop-color="#FFCD3E"/><stop offset=".856" stop-color="#FFAD2B"/><stop offset="1" stop-color="#FFA325"/></linearGradient><linearGradient id="ax" x1="31.579" y1="36.187" x2="31.579" y2="42.652" gradientUnits="userSpaceOnUse"><stop stop-color="#E87264" stop-opacity="0"/><stop offset="1" stop-color="#FF7044"/></linearGradient><linearGradient id="ay" x1="31.579" y1="36.188" x2="31.579" y2="42.652" gradientUnits="userSpaceOnUse"><stop stop-color="#E87264" stop-opacity="0"/><stop offset="1" stop-color="#FF7044"/></linearGradient><linearGradient id="az" x1="31.563" y1="37.223" x2="30.03" y2="33.517" gradientUnits="userSpaceOnUse"><stop stop-color="#FFD945" stop-opacity="0"/><stop offset="1" stop-color="#FBED21"/></linearGradient><linearGradient id="aA" x1="2.991" y1="15.274" x2="6.881" y2="20.482" gradientUnits="userSpaceOnUse"><stop stop-color="#FFD945"/><stop offset=".304" stop-color="#FFCD3E"/><stop offset=".856" stop-color="#FFAD2B"/><stop offset="1" stop-color="#FFA325"/></linearGradient><linearGradient id="aB" x1="9.286" y1="4.644" x2="12.037" y2="8.327" gradientUnits="userSpaceOnUse"><stop stop-color="#FFD945"/><stop offset=".304" stop-color="#FFCD3E"/><stop offset=".856" stop-color="#FFAD2B"/><stop offset="1" stop-color="#FFA325"/></linearGradient><linearGradient id="aC" x1="33.033" y1="6.676" x2="35.784" y2="10.36" gradientUnits="userSpaceOnUse"><stop stop-color="#FFD945"/><stop offset=".304" stop-color="#FFCD3E"/><stop offset=".856" stop-color="#FFAD2B"/><stop offset="1" stop-color="#FFA325"/></linearGradient><radialGradient id="H" cx="0" cy="0" r="1" gradientUnits="userSpaceOnUse" gradientTransform="translate(16.353 17.05) scale(27.8005)"><stop stop-color="#4AB272"/><stop offset=".339" stop-color="#47B071"/><stop offset=".55" stop-color="#3FA870"/><stop offset=".727" stop-color="#309B6D"/><stop offset=".884" stop-color="#1C8869"/><stop offset="1" stop-color="#077565"/></radialGradient><clipPath id="a"><path fill="#fff" d="M0 0h42v42H0z"/></clipPath></defs></svg>