<svg width="32" height="32" viewBox="0 0 32 32" fill="none" xmlns="http://www.w3.org/2000/svg">
<path d="M18.6344 12.7234L20.513 10.9364L17.8956 10.5647C17.5927 10.5216 17.329 10.3331 17.1908 10.0593L15.9997 7.70288L14.8086 10.0593C14.6704 10.3331 14.4067 10.5216 14.1037 10.5647L11.4863 10.9364L13.365 12.7234C13.592 12.9404 13.6964 13.2563 13.6423 13.5648L13.1937 16.1162L15.5712 14.8959C15.8404 14.7586 16.159 14.7586 16.4281 14.8959L18.8056 16.1162L18.357 13.5648C18.303 13.2562 18.4074 12.9404 18.6344 12.7234Z" fill="#5A4A4A"/>
<path d="M15.9994 0C9.27975 0 3.8125 5.46725 3.8125 12.1869C3.8125 18.9066 9.27975 24.3739 15.9994 24.3739C22.7191 24.3739 28.1864 18.9066 28.1864 12.1869C28.1864 5.46725 22.7191 0 15.9994 0ZM23.208 10.9593L20.2912 13.735L20.9787 17.6496C21.1117 18.4095 20.3142 19.0024 19.6266 18.6457L15.9994 16.7836L12.3723 18.6458C11.6867 18.9979 10.8862 18.4152 11.0201 17.6497L11.7077 13.7351L8.79094 10.9593C8.224 10.4183 8.53269 9.461 9.30544 9.35169L13.3556 8.77675L15.1627 5.20181C15.4814 4.57012 16.5177 4.57012 16.8362 5.20181L18.6434 8.77675L22.6936 9.35169C23.4662 9.46094 23.7749 10.4183 23.208 10.9593Z" fill="#5A4A4A"/>
<path d="M15.9997 26.2488C13.6299 26.2488 11.3983 25.6539 9.4375 24.6144V31.0611C9.4375 31.8111 10.2771 32.2556 10.8949 31.841L15.9997 28.4383L21.1044 31.8411C21.7251 32.2549 22.5619 31.8102 22.5619 31.0612V24.6144C20.601 25.654 18.3695 26.2488 15.9997 26.2488Z" fill="#5A4A4A"/>
</svg>
