<svg width="32" height="32" viewBox="0 0 32 32" fill="none" xmlns="http://www.w3.org/2000/svg">
<path d="M18.8125 7.5V11.25C19.8464 11.25 20.6875 10.4089 20.6875 9.375C20.6875 8.34106 19.8464 7.5 18.8125 7.5Z" fill="#5A4A4A"/>
<path d="M12.25 7.5C11.7332 7.5 11.3125 7.92065 11.3125 8.4375V9.375H13.1875V8.4375C13.1875 7.92065 12.7668 7.5 12.25 7.5Z" fill="#5A4A4A"/>
<path d="M31.0625 0H0.9375C0.419922 0 0 0.419922 0 0.9375V17.8125C0 18.3301 0.419922 18.75 0.9375 18.75H11.25V16.0874C11.25 13.9597 13.5376 12.5947 15.4111 13.6194L24.7993 18.75H31.0625C31.5801 18.75 32 18.3301 32 17.8125V0.9375C32 0.419922 31.5801 0 31.0625 0ZM15.0625 12.1875C15.0625 12.7051 14.6426 13.125 14.125 13.125C13.6074 13.125 13.1875 12.7051 13.1875 12.1875V11.25H11.3125V12.1875C11.3125 12.7051 10.8926 13.125 10.375 13.125C9.85742 13.125 9.4375 12.7051 9.4375 12.1875V8.4375C9.4375 6.88696 10.6995 5.625 12.25 5.625C13.8005 5.625 15.0625 6.88696 15.0625 8.4375V12.1875ZM18.8125 13.125H17.875C17.3574 13.125 16.9375 12.7051 16.9375 12.1875V6.5625C16.9375 6.04492 17.3574 5.625 17.875 5.625H18.8125C20.8799 5.625 22.5625 7.30762 22.5625 9.375C22.5625 11.4424 20.8799 13.125 18.8125 13.125Z" fill="#5A4A4A"/>
<path d="M25.915 21.4966L14.5122 15.2647C13.8867 14.9226 13.125 15.3782 13.125 16.0872V29.0835C13.125 29.8086 13.9165 30.26 14.5408 29.8897L17.5317 28.1155L19.6543 31.5112C19.9243 31.9434 20.4895 32.0803 20.9275 31.8208L24.7732 29.5396C25.2258 29.271 25.3684 28.6819 25.0898 28.2363L22.9905 24.8774L25.9438 23.1255C26.5676 22.7556 26.552 21.8447 25.915 21.4966Z" fill="#5A4A4A"/>
</svg>
