<svg width="32" height="32" viewBox="0 0 32 32" fill="none" xmlns="http://www.w3.org/2000/svg">
<path fill-rule="evenodd" clip-rule="evenodd" d="M31.7158 10.0726L31.7226 26.8937C31.7229 27.6522 31.1043 28.2712 30.3458 28.2715L18.3533 28.2757C18.534 27.969 18.6379 27.6117 18.6379 27.2305C18.6379 26.8179 18.5165 26.4332 18.3075 26.1104C19.4152 26.0747 20.3044 25.1634 20.3044 24.0471C20.3044 23.52 20.1061 23.0384 19.7802 22.6732C20.4183 22.3217 20.8516 21.6426 20.8516 20.8637C20.8516 19.9937 20.3109 19.2481 19.548 18.9446C19.8191 18.595 19.9807 18.1562 19.9807 17.6804C19.9807 16.5417 19.0553 15.6162 17.9166 15.6162H16.8675L16.8652 10.0777C16.8651 9.67287 17.0201 9.32437 17.321 9.05356L22.1819 4.678C22.8058 4.11637 23.4489 3.70556 24.2882 3.70525C25.1277 3.70493 25.7711 4.11543 26.3953 4.6765L31.2592 9.04868C31.5603 9.31937 31.7157 9.66781 31.7158 10.0726ZM9.57856 28.2947H16.5735C17.1604 28.2947 17.638 27.8174 17.638 27.2306C17.638 26.6431 17.1604 26.1655 16.5735 26.1655H13.763C13.4722 26.1655 13.2364 25.9297 13.2364 25.6386C13.2364 25.3481 13.4722 25.1116 13.763 25.1116H18.24C18.827 25.1116 19.3045 24.6341 19.3045 24.0472C19.3045 23.4603 18.8269 22.9821 18.24 22.9821H13.763C13.4722 22.9821 13.2364 22.7463 13.2364 22.4552C13.2364 22.1647 13.4722 21.9282 13.763 21.9282H18.7866C19.3735 21.9282 19.8516 21.4507 19.8516 20.8638C19.8516 20.2769 19.3735 19.7994 18.7866 19.7994H13.763C13.4722 19.7994 13.2364 19.5629 13.2364 19.2724C13.2364 18.9816 13.4722 18.7458 13.763 18.7458H17.9166C18.5036 18.7458 18.9808 18.2673 18.9808 17.6804C18.9808 17.0939 18.5036 16.6163 17.9166 16.6163H11.8926C11.6863 16.6163 11.4987 16.4957 11.4132 16.3077C11.3275 16.1204 11.3592 15.9001 11.494 15.7442C12.4075 14.6896 12.5785 12.69 11.5958 11.7074C11.509 11.6207 11.3909 11.5901 11.2729 11.6236C11.1549 11.6571 11.0705 11.7454 11.0424 11.8648C10.6205 13.6553 10.3781 13.9321 8.55206 15.0007C7.46188 15.7125 7.46188 15.7125 6.75382 16.7459C6.67488 16.8617 6.58726 16.9892 6.48969 17.1308C5.98513 17.8603 5.26276 18.2344 4.34189 18.2424L4.29127 18.2431V27.0202C4.66533 27.1407 5.02695 27.2759 5.37932 27.4076C6.54713 27.8435 7.75475 28.2947 9.57856 28.2947ZM3.23727 27.8819C3.23727 27.9564 3.17452 28.0183 3.10083 28.0183H0.413718C0.339781 28.0183 0.277344 27.9564 0.277344 27.8819V16.6183C0.277344 16.5447 0.339781 16.4819 0.413718 16.4819H3.10089C3.17452 16.4819 3.23733 16.5447 3.23733 16.6183V27.8819H3.23727ZM23.3849 9.03481C23.8851 9.53462 24.6957 9.53437 25.1954 9.03418C25.6952 8.534 25.6949 7.72343 25.1948 7.22362C24.6947 6.72381 23.8841 6.72406 23.3842 7.22425C22.8845 7.72443 22.8848 8.53506 23.3849 9.03481ZM27.0636 16.654C26.6717 15.7207 25.9259 15.1815 25.1059 14.9737C25.003 14.9476 24.8989 14.9269 24.7939 14.9115V14.2672C24.7939 13.9911 24.5701 13.7672 24.2939 13.7672C24.0178 13.7672 23.7939 13.9911 23.7939 14.2672V14.9192C23.7514 14.9261 23.7091 14.9337 23.667 14.9422C23.1926 15.0378 22.7476 15.2375 22.3899 15.5284C21.8471 15.9697 21.5029 16.6102 21.5417 17.4086C21.5804 18.2069 21.9797 18.743 22.5356 19.1059C23.0334 19.4309 23.6504 19.5999 24.221 19.6936C24.7101 19.7739 25.234 19.9019 25.638 20.1458C25.9837 20.3546 26.2437 20.6615 26.2998 21.1241C26.3066 21.1798 26.3103 21.2241 26.3111 21.2573C26.3201 21.6375 26.1403 21.9257 25.8703 22.1306C25.556 22.3691 25.1212 22.5088 24.6892 22.5612C24.5766 22.5749 24.4747 22.5827 24.3847 22.5849C23.8712 22.5972 23.363 22.4704 22.9643 22.2049C22.6276 21.9807 22.3703 21.6522 22.2625 21.2201C22.1967 20.9526 21.9265 20.7891 21.659 20.8548C21.3915 20.9206 21.228 21.1908 21.2938 21.4583C21.4672 22.1539 21.8776 22.6801 22.4134 23.0369C22.8186 23.3067 23.2961 23.4764 23.7939 23.5459V24.1921C23.7939 24.4682 24.0177 24.6921 24.2939 24.6921C24.57 24.6921 24.7939 24.4682 24.7939 24.1921V23.5549L24.8064 23.5534C25.3946 23.4821 26.0039 23.2786 26.4718 22.9235C26.984 22.5348 27.3249 21.9789 27.3071 21.2339C27.3052 21.1501 27.3001 21.0742 27.2919 21.0069C27.192 20.1841 26.7456 19.6478 26.1536 19.2904C25.6197 18.9681 24.9741 18.8067 24.3811 18.7093C23.9235 18.6342 23.4394 18.5056 23.0785 18.27C22.7756 18.0722 22.5583 17.7845 22.5378 17.3617C22.516 16.9133 22.7111 16.552 23.0188 16.3019C23.2505 16.1134 23.5446 15.9829 23.8623 15.9189C24.1859 15.8537 24.5329 15.8587 24.8637 15.9426C25.3986 16.0781 25.8855 16.4305 26.1417 17.0409C26.2485 17.2954 26.5415 17.4152 26.796 17.3084C27.0505 17.2015 27.1704 16.9086 27.0636 16.654Z" fill="#5A4A4A"/>
</svg>
