<svg width="32" height="32" viewBox="0 0 32 32" fill="none" xmlns="http://www.w3.org/2000/svg">
<g clip-path="url(#clip0_1701_8989)">
<path d="M23.5 24.4375C24.0178 24.4375 24.4375 24.0178 24.4375 23.5C24.4375 22.9822 24.0178 22.5625 23.5 22.5625C22.9822 22.5625 22.5625 22.9822 22.5625 23.5C22.5625 24.0178 22.9822 24.4375 23.5 24.4375Z" fill="#5A4A4A"/>
<path d="M8.5 9.4375C9.01777 9.4375 9.4375 9.01777 9.4375 8.5C9.4375 7.98223 9.01777 7.5625 8.5 7.5625C7.98223 7.5625 7.5625 7.98223 7.5625 8.5C7.5625 9.01777 7.98223 9.4375 8.5 9.4375Z" fill="#5A4A4A"/>
<path d="M10.9557 0.808746C9.88321 2.12625 9.02571 3.82937 8.36633 5.69062C6.91946 5.75874 5.75508 6.92437 5.69008 8.37187C4.04946 8.99624 2.22758 9.85562 0.783203 11.0325C2.35133 6.21062 6.14383 2.40062 10.9557 0.808746Z" fill="#5A4A4A"/>
<path d="M10.9526 31.19C6.14321 29.5975 2.35195 25.7888 0.783203 20.9681C2.88508 22.6831 5.78446 23.7263 7.75571 24.3444C8.46071 26.9519 9.51196 29.4194 10.9526 31.19Z" fill="#5A4A4A"/>
<path d="M31.2169 11.0337C31.1994 11.0194 31.1819 11.0044 31.1644 10.99C29.0056 9.20437 26.2669 8.28374 24.2469 7.66749C23.5419 5.05562 22.4894 2.58312 21.0469 0.809998C25.8569 2.4025 29.6488 6.21187 31.2169 11.0337Z" fill="#5A4A4A"/>
<path d="M31.2161 20.9656C29.648 25.7881 25.8555 29.5988 21.043 31.1913C22.1148 29.8738 22.973 28.1706 23.6323 26.3094C25.0717 26.2419 26.2323 25.0869 26.308 23.6494C27.9211 23.0556 29.683 22.235 31.1642 21.0094C31.1817 20.995 31.1992 20.9806 31.2161 20.9656Z" fill="#5A4A4A"/>
<path d="M22.1922 7.21812C20.1934 6.82875 18.0722 6.625 15.9991 6.625C14.2978 6.625 12.5647 6.76188 10.8934 7.02688C10.7003 6.71313 10.4466 6.43937 10.1484 6.22375C11.5216 2.51875 13.6322 0 15.9991 0C18.5722 0 20.8422 2.97687 22.1922 7.21812Z" fill="#5A4A4A"/>
<path d="M21.8504 25.7762C20.4773 29.4812 18.3666 32 15.9998 32C13.4266 32 11.1566 29.0231 9.80664 24.7819C11.8054 25.1712 13.9266 25.375 15.9998 25.375C17.701 25.375 19.4341 25.2381 21.1054 24.9731C21.2985 25.2869 21.5523 25.5606 21.8504 25.7762Z" fill="#5A4A4A"/>
<path d="M7.25812 22.2069C2.99625 20.8575 0 18.5812 0 16C0 13.6337 2.51875 11.5231 6.22375 10.1487C6.44625 10.4562 6.73 10.7169 7.05625 10.9125C6.76438 12.705 6.625 14.4587 6.625 16C6.625 17.8525 6.82812 20.0256 7.25812 22.2069Z" fill="#5A4A4A"/>
<path d="M32.0003 16C32.0003 18.3662 29.4816 20.4769 25.7766 21.8512C25.5541 21.5437 25.2703 21.2831 24.9441 21.0875C25.2359 19.295 25.3753 17.5412 25.3753 16C25.3753 14.1475 25.1722 11.9744 24.7422 9.79312C29.0041 11.1425 32.0003 13.4187 32.0003 16Z" fill="#5A4A4A"/>
<path d="M23.5 16C23.5 17.6088 23.3731 19.1969 23.1381 20.7106C21.8762 20.8737 20.8737 21.8762 20.7106 23.1381C19.1969 23.3731 17.6088 23.5 16 23.5C13.6506 23.5 11.3469 23.2294 9.25187 22.7481C8.77062 20.6531 8.5 18.3494 8.5 16C8.5 14.3913 8.62687 12.8031 8.86187 11.2894C10.1237 11.1263 11.1263 10.1237 11.2894 8.86187C12.8031 8.62687 14.3913 8.5 16 8.5C18.3494 8.5 20.6531 8.77062 22.7481 9.25187C23.2294 11.3469 23.5 13.6506 23.5 16Z" fill="#5A4A4A"/>
</g>
<defs>
<clipPath id="clip0_1701_8989">
<rect width="32" height="32" fill="white"/>
</clipPath>
</defs>
</svg>
