<svg width="32" height="32" viewBox="0 0 32 32" fill="none" xmlns="http://www.w3.org/2000/svg">
<g clip-path="url(#clip0_1701_9026)">
<path d="M15.518 9.47918L15.9999 9.76812C20.1465 7.48224 20.0973 4.01062 20.0143 2.78331H19.0963C17.4431 2.70731 16.5223 1.45894 16.0026 0.949936C15.4734 1.45987 14.5644 2.70375 12.9036 2.78331H11.9856C11.9738 3.75837 11.6234 7.00918 15.518 9.47918Z" fill="#5A4A4A"/>
<path d="M7.09375 25.4251H0V27.3001H13.8244C11.8044 26.0819 9.4725 25.4251 7.09375 25.4251Z" fill="#5A4A4A"/>
<path d="M18.1758 27.3001H32.0002V25.4251H24.9064C22.5277 25.4251 20.1958 26.0819 18.1758 27.3001Z" fill="#5A4A4A"/>
<path d="M0 29.1751H32V31.0501H0V29.1751Z" fill="#5A4A4A"/>
<path d="M12.2881 24.4876C13.2556 24.8469 14.1862 25.3076 15.0625 25.8613C15.0625 25.3457 15.0625 14.0841 15.0625 13.2619C12.7881 11.5032 9.97563 10.5394 7.09375 10.5394H0V23.5501H7.09375C8.87625 23.5501 10.6362 23.8726 12.2881 24.4876ZM4.625 13.8238H7.09375C9.01 13.8238 10.8837 14.1869 12.6631 14.9044L11.9619 16.6432C10.4062 16.0163 8.76875 15.6988 7.09375 15.6988H4.625V13.8238ZM4.625 18.5907H7.09375C9.01 18.5907 10.8837 18.9544 12.6631 19.6713L11.9619 21.4107C10.4069 20.7838 8.76875 20.4657 7.09375 20.4657H4.625V18.5907Z" fill="#5A4A4A"/>
<path d="M24.9062 10.5394C22.0244 10.5394 19.2119 11.5032 16.9375 13.2619V25.8613C19.3152 24.3589 22.0822 23.5503 24.9062 23.5501H32V10.5394H24.9062ZM27.375 20.4657H24.9062C23.2312 20.4657 21.5931 20.7838 20.0381 21.4107L19.3369 19.6713C21.1163 18.9544 22.99 18.5907 24.9062 18.5907H27.375V20.4657ZM27.375 15.6988H24.9062C23.2312 15.6988 21.5937 16.0163 20.0381 16.6432L19.3369 14.9044C21.1163 14.1869 22.99 13.8238 24.9062 13.8238H27.375V15.6988Z" fill="#5A4A4A"/>
</g>
<defs>
<clipPath id="clip0_1701_9026">
<rect width="32" height="32" fill="white"/>
</clipPath>
</defs>
</svg>
