<svg width="32" height="32" viewBox="0 0 32 32" fill="none" xmlns="http://www.w3.org/2000/svg">
<path d="M26.8901 22.3874C25.427 24.3844 22.9869 25.733 19.9006 25.733C18.4582 25.733 17.1451 25.4788 15.9819 25.0016L21.255 21.9724L19.9626 19.7108L13.4642 23.4455C12.8387 22.8905 12.2959 22.2421 11.8358 21.5107L18.4686 17.6983L17.1761 15.4367L10.7398 19.1351C10.3521 17.9109 10.1453 16.5571 10.1453 15.0944C10.1453 9.13961 14.1311 4.5283 20.1022 4.5283C22.4182 4.5283 25.1427 5.42567 26.6471 7.50568L30.5502 4.40382C28.3169 1.38495 23.8037 0 20.1022 0C11.2413 0 4.49475 5.83026 4.49475 15.0892C4.49475 17.5997 4.99621 19.8976 5.91125 21.9102L1 24.7319L2.29243 26.9935L7.20886 24.1717C7.69482 24.8668 8.23764 25.5152 8.83733 26.1065L3.78649 29.006L5.07892 31.2676L11.0138 27.8545C13.4591 29.4469 16.473 30.3391 19.8592 30.3391C24.7756 30.3391 28.4358 28.5029 31 25.2817L26.8901 22.3874Z" fill="#5A4A4A"/>
</svg>
