<svg width="32" height="32" viewBox="0 0 32 32" fill="none" xmlns="http://www.w3.org/2000/svg">
<g clip-path="url(#clip0_1701_9034)">
<path d="M15.9995 9.90354C12.6375 9.90354 9.90234 12.6386 9.90234 16.0005C9.90234 19.3625 12.6375 22.0976 15.9995 22.0976C19.3613 22.0976 22.0964 19.3625 22.0964 16.0005C22.0964 12.6386 19.3613 9.90354 15.9995 9.90354ZM19.6194 14.8523L15.2515 19.2202C15.0681 19.4035 14.8276 19.4953 14.5874 19.4953C14.3472 19.4953 14.1069 19.4038 13.9236 19.2202L12.2544 17.551C11.8877 17.1845 11.8877 16.5901 12.2544 16.2234C12.6208 15.8567 13.2153 15.8567 13.582 16.2234L14.5874 17.2287L18.2917 13.5246C18.6582 13.1579 19.2527 13.1579 19.6194 13.5246C19.9861 13.8911 19.9861 14.4856 19.6194 14.8523Z" fill="#5A4A4A"/>
<path d="M29.5929 8.68235L29.592 8.65745C29.578 8.35008 29.5688 8.02488 29.5631 7.66307C29.537 5.89867 28.1344 4.4392 26.3698 4.34057C22.6906 4.13524 19.8444 2.93554 17.4125 0.565184L17.3918 0.545409C16.5986 -0.181884 15.4021 -0.181884 14.6086 0.545409L14.5878 0.565184C12.156 2.93554 9.30978 4.13524 5.63059 4.34081C3.8662 4.4392 2.46337 5.89867 2.43724 7.66331C2.43187 8.02268 2.42235 8.34788 2.40844 8.65745L2.40697 8.71531C2.33544 12.467 2.24657 17.1362 3.80858 21.3742C4.66746 23.7048 5.96824 25.7306 7.67453 27.3959C9.61789 29.2924 12.1633 30.798 15.2399 31.8708C15.34 31.9057 15.444 31.934 15.55 31.9552C15.6994 31.985 15.8498 31.9999 16.0002 31.9999C16.1506 31.9999 16.3012 31.985 16.4504 31.9552C16.5563 31.934 16.6611 31.9054 16.7617 31.8703C19.8347 30.7956 22.3774 29.2892 24.319 27.393C26.0246 25.7272 27.3254 23.7009 28.185 21.3698C29.7528 17.1191 29.6642 12.4411 29.5929 8.68235ZM15.9997 23.9753C11.6023 23.9753 8.02488 20.3979 8.02488 16.0004C8.02488 11.603 11.6023 8.02561 15.9997 8.02561C20.3969 8.02561 23.9745 11.603 23.9745 16.0004C23.9745 20.3979 20.3969 23.9753 15.9997 23.9753Z" fill="#5A4A4A"/>
</g>
<defs>
<clipPath id="clip0_1701_9034">
<rect width="32" height="32" fill="white"/>
</clipPath>
</defs>
</svg>
